<svg width="155" height="212" viewBox="0 0 155 212" fill="none" xmlns="http://www.w3.org/2000/svg">
<path d="M143.26 118.9H15.3198V118.42H143.26C143.737 118.412 144.197 118.239 144.561 117.931C144.925 117.624 145.172 117.199 145.26 116.73L148.26 100.56C148.313 100.264 148.302 99.9594 148.227 99.6679C148.152 99.3763 148.015 99.1045 147.825 98.8709C147.635 98.6373 147.397 98.4474 147.126 98.3144C146.856 98.1814 146.561 98.1083 146.26 98.1001H7.3298C6.76464 98.1004 6.21537 97.913 5.76829 97.5673C5.32121 97.2216 5.00164 96.7371 4.8598 96.1901C0.672334 80.3722 1.79511 63.6169 8.05559 48.4991C14.3161 33.3813 25.3678 20.7377 39.5123 12.5114C53.6568 4.285 70.1114 0.931129 86.3473 2.96518C102.583 4.99923 117.702 12.3086 129.38 23.7701C143.134 37.206 151.141 55.4515 151.72 74.6701C151.729 75.0124 151.67 75.3531 151.547 75.6725C151.423 75.9918 151.237 76.2833 151 76.5301C150.761 76.7755 150.474 76.9701 150.158 77.1024C149.842 77.2347 149.503 77.302 149.16 77.3001H41.3998V76.8301H149.16C149.439 76.8333 149.716 76.7781 149.973 76.6679C150.229 76.5576 150.46 76.3949 150.65 76.1901C150.847 75.9947 151.001 75.7604 151.103 75.5021C151.204 75.2439 151.251 74.9673 151.24 74.6901C150.812 60.2535 146.17 46.2574 137.884 34.4275C129.599 22.5975 118.032 13.4507 104.611 8.11483C91.1902 2.77891 76.501 1.48709 62.3546 4.39864C48.2081 7.31019 35.2229 14.2978 24.9998 24.5001C17.9807 31.3613 12.4058 39.5579 8.60343 48.607C4.80107 57.656 2.84817 67.3746 2.8598 77.1901C2.86695 83.5628 3.69373 89.9082 5.3198 96.0701C5.43481 96.5132 5.69351 96.9058 6.0554 97.1862C6.41729 97.4667 6.86195 97.6193 7.3198 97.6201H146.27C146.642 97.6235 147.008 97.7076 147.345 97.8666C147.681 98.0255 147.979 98.2556 148.217 98.5408C148.456 98.826 148.63 99.1597 148.727 99.5186C148.824 99.8776 148.842 100.253 148.78 100.62L145.78 116.79C145.678 117.383 145.369 117.921 144.907 118.308C144.446 118.694 143.862 118.904 143.26 118.9Z" fill="#DDA15E"/>
<path d="M143.26 120.13H14.1002V117.2H143.26C143.46 117.199 143.653 117.128 143.806 117.001C143.959 116.873 144.063 116.696 144.1 116.5L147.1 100.33C147.124 100.208 147.12 100.082 147.089 99.9616C147.059 99.8411 147.001 99.729 146.922 99.6334C146.843 99.5377 146.743 99.4608 146.63 99.4084C146.517 99.3559 146.395 99.3291 146.27 99.3299H7.33022C6.49505 99.3273 5.68397 99.0497 5.0224 98.54C4.36082 98.0303 3.8856 97.3168 3.67022 96.5099C2.00816 90.2042 1.16457 83.7109 1.16022 77.1899C1.14706 67.1477 3.14536 57.2047 7.03721 47.9474C10.9291 38.69 16.6356 30.306 23.8202 23.2899C34.2861 12.8783 47.5665 5.75232 62.0284 2.78802C76.4903 -0.176287 91.5032 1.15036 105.221 6.60482C118.939 12.0593 130.764 21.4038 139.242 33.4893C147.72 45.5748 152.481 59.8744 152.94 74.6299C152.956 75.1363 152.87 75.6407 152.688 76.1133C152.505 76.5858 152.229 77.0168 151.876 77.3806C151.524 77.7445 151.102 78.0337 150.635 78.2311C150.168 78.4285 149.667 78.5301 149.16 78.5299H40.1602V75.5999H149.16C149.276 75.601 149.39 75.5785 149.497 75.5338C149.604 75.4891 149.7 75.4231 149.78 75.3399C149.859 75.2578 149.92 75.1604 149.96 75.0537C149.999 74.9471 150.016 74.8334 150.01 74.7199C149.596 60.5218 145.034 46.7557 136.888 35.1198C128.742 23.4839 117.367 14.4872 104.168 9.23964C90.9688 3.99208 76.5222 2.72321 62.6104 5.58957C48.6985 8.45593 35.9301 15.3321 25.8802 25.3699C18.9722 32.1155 13.4844 40.1757 9.74037 49.0755C5.99634 57.9753 4.07181 67.5346 4.08022 77.1899C4.09441 83.4575 4.90763 89.6979 6.50022 95.7599C6.54871 95.9431 6.65636 96.1052 6.80646 96.2209C6.95656 96.3366 7.14068 96.3996 7.33022 96.3999H146.27C146.825 96.4008 147.372 96.5237 147.873 96.7597C148.375 96.9957 148.818 97.3392 149.172 97.7657C149.526 98.1922 149.782 98.6914 149.922 99.2279C150.061 99.7643 150.081 100.325 149.98 100.87L147 117C146.849 117.88 146.389 118.678 145.704 119.251C145.02 119.824 144.153 120.136 143.26 120.13Z" fill="#DDA15E"/>
<path d="M143.26 120.06H15.3202C15.0126 120.06 14.7175 119.938 14.5 119.72C14.2824 119.503 14.1602 119.208 14.1602 118.9V118.42C14.1602 118.268 14.1903 118.118 14.2487 117.978C14.3071 117.837 14.3927 117.71 14.5006 117.603C14.6084 117.496 14.7364 117.412 14.8771 117.355C15.0177 117.297 15.1684 117.269 15.3202 117.27H143.26C143.474 117.269 143.681 117.194 143.845 117.057C144.009 116.92 144.121 116.73 144.16 116.52L147.16 100.35C147.185 100.217 147.181 100.081 147.147 99.9504C147.113 99.8198 147.051 99.6982 146.965 99.5942C146.88 99.4902 146.772 99.4064 146.65 99.3486C146.528 99.2909 146.395 99.2606 146.26 99.26H7.33021C6.51019 99.2585 5.71362 98.9862 5.06438 98.4852C4.41515 97.9843 3.94963 97.2828 3.74021 96.49C2.07876 90.1908 1.23186 83.7046 1.22021 77.19C1.33396 56.937 9.48594 37.5581 23.8839 23.3139C38.2818 9.06973 57.7471 1.12629 78.0002 1.23001C97.533 1.4671 116.221 9.23091 130.172 22.9042C144.123 36.5775 152.261 55.1059 152.89 74.63C152.906 75.1272 152.822 75.6226 152.643 76.0866C152.464 76.5507 152.193 76.974 151.847 77.3313C151.501 77.6886 151.086 77.9727 150.628 78.1666C150.17 78.3605 149.678 78.4603 149.18 78.46H41.4002C41.0926 78.46 40.7975 78.3378 40.58 78.1203C40.3624 77.9027 40.2402 77.6077 40.2402 77.3V76.83C40.2402 76.5224 40.3624 76.2273 40.58 76.0098C40.7975 75.7922 41.0926 75.67 41.4002 75.67H149.16C149.288 75.6705 149.415 75.6443 149.532 75.5932C149.649 75.542 149.754 75.467 149.841 75.3729C149.927 75.2788 149.993 75.1677 150.035 75.0467C150.076 74.9257 150.091 74.7974 150.08 74.67C149.657 60.4622 145.084 46.6891 136.926 35.0489C128.769 23.4087 117.383 14.4103 104.173 9.16345C90.9626 3.91657 76.5056 2.65055 62.5845 5.52149C48.6633 8.39244 35.8868 15.2748 25.8302 25.32C16.6562 34.2987 10.0279 45.5501 6.62154 57.9266C3.21517 70.303 3.1526 83.3615 6.44022 95.77C6.49083 95.9684 6.60549 96.1445 6.76641 96.2711C6.92732 96.3976 7.1255 96.4676 7.33021 96.47H146.27C146.815 96.4714 147.352 96.5922 147.845 96.824C148.338 97.0559 148.773 97.393 149.122 97.8117C149.47 98.2304 149.722 98.7204 149.86 99.2471C149.998 99.7738 150.018 100.324 149.92 100.86L146.92 117.03C146.759 117.883 146.305 118.652 145.637 119.205C144.969 119.759 144.128 120.061 143.26 120.06Z" fill="#DDA15E"/>
<path d="M143.26 121.28H15.32C14.6888 121.28 14.0834 121.029 13.6371 120.583C13.1907 120.137 12.94 119.531 12.94 118.9V118.42C12.936 118.104 12.9946 117.791 13.1123 117.498C13.23 117.206 13.4045 116.939 13.6258 116.714C13.8471 116.489 14.1107 116.31 14.4015 116.188C14.6923 116.065 15.0044 116.001 15.32 116H143L145.9 100.45H7.33C6.24513 100.443 5.19212 100.082 4.32986 99.424C3.46761 98.7656 2.8429 97.8446 2.55 96.8C0.864466 90.4027 0.00745701 83.8155 0 77.2C0.111107 56.6207 8.39014 36.9279 23.0169 22.4512C37.6436 7.97449 57.4207 -0.10109 78 -3.95312e-05C97.8488 0.247035 116.838 8.14019 131.013 22.0361C145.188 35.9321 153.458 54.76 154.1 74.6C154.112 75.2591 153.993 75.9141 153.751 76.5272C153.509 77.1403 153.148 77.6995 152.689 78.1726C152.23 78.6457 151.682 79.0233 151.076 79.2837C150.47 79.5441 149.819 79.6822 149.16 79.69H41.4C41.0853 79.6913 40.7734 79.6304 40.4823 79.5109C40.1912 79.3914 39.9265 79.2156 39.7035 78.9935C39.4806 78.7714 39.3036 78.5075 39.1829 78.2169C39.0621 77.9263 39 77.6147 39 77.3V76.83C39 76.1978 39.2504 75.5914 39.6965 75.1435C40.1425 74.6956 40.7479 74.4426 41.38 74.44H148.85C148.381 60.4951 143.848 46.9912 135.807 35.5879C127.767 24.1847 116.57 15.3791 103.593 10.2534C90.6161 5.1278 76.4241 3.90548 62.7616 6.73673C49.0991 9.56798 36.5616 16.3294 26.69 26.19C17.6965 34.9909 11.1901 46.0134 7.83046 58.1399C4.47086 70.2665 4.37755 83.0657 7.56 95.24H146.27C146.991 95.2513 147.701 95.4185 148.351 95.7301C149.002 96.0416 149.577 96.4902 150.038 97.0449C150.498 97.5996 150.834 98.2475 151.02 98.944C151.207 99.6405 151.241 100.369 151.12 101.08L148.12 117.25C147.911 118.385 147.31 119.411 146.422 120.147C145.533 120.884 144.414 121.285 143.26 121.28ZM15.39 118.83H143.26C143.836 118.832 144.394 118.633 144.839 118.268C145.284 117.903 145.589 117.395 145.7 116.83L148.7 100.66C148.766 100.302 148.752 99.9332 148.66 99.5807C148.568 99.2281 148.4 98.9001 148.167 98.6197C147.934 98.3394 147.643 98.1135 147.313 97.958C146.984 97.8025 146.624 97.7213 146.26 97.72H7.33C6.85573 97.7186 6.39509 97.5612 6.01917 97.272C5.64325 96.9829 5.37296 96.578 5.25 96.12C3.62386 89.9513 2.79709 83.5993 2.79 77.22C2.89581 57.3781 10.8789 38.3909 24.9833 24.4346C39.0876 10.4784 58.1581 2.69625 78 2.79996C97.1367 2.99305 115.456 10.5845 129.12 23.9839C142.784 37.3833 150.733 55.5507 151.3 74.68C151.312 74.9672 151.265 75.2539 151.162 75.5222C151.059 75.7906 150.901 76.0349 150.7 76.24C150.501 76.447 150.261 76.6114 149.997 76.7231C149.732 76.8349 149.447 76.8916 149.16 76.89H41.47V77.24H149.16C149.494 77.2401 149.824 77.1732 150.132 77.0431C150.439 76.913 150.717 76.7224 150.95 76.4826C151.182 76.2428 151.364 75.9588 151.484 75.6474C151.604 75.336 151.661 75.0036 151.65 74.67C151.226 60.1529 146.562 46.0775 138.233 34.1799C129.904 22.2822 118.275 13.0828 104.779 7.71637C91.2841 2.34991 76.5131 1.05114 62.2883 3.98027C48.0635 6.9094 35.0073 13.9383 24.73 24.2C15.3547 33.3765 8.58145 44.8758 5.10127 57.5246C1.62108 70.1734 1.55853 83.5191 4.92 96.2C5.07193 96.7209 5.38924 97.1783 5.824 97.503C6.25876 97.8277 6.78737 98.0021 7.33 98H146.27C146.584 97.9988 146.895 98.0672 147.18 98.2002C147.464 98.3333 147.716 98.5277 147.917 98.7695C148.118 99.0114 148.262 99.2946 148.341 99.599C148.419 99.9033 148.429 100.221 148.37 100.53L145.37 116.7C145.279 117.192 145.018 117.637 144.632 117.957C144.246 118.277 143.761 118.451 143.26 118.45H15.39V118.83Z" fill="#DDA15E"/>
<path d="M48.2098 212C47.8984 212 47.5967 211.892 47.3573 211.692C47.1179 211.493 46.956 211.216 46.8998 210.91L40.1098 181.18H27.2298C26.9313 181.183 26.6402 181.086 26.4029 180.905C26.1656 180.724 25.9956 180.469 25.9198 180.18L16.4698 138.79C16.4246 138.595 16.4241 138.392 16.4684 138.196C16.5128 138 16.6007 137.817 16.7257 137.661C16.8508 137.504 17.0096 137.377 17.1904 137.291C17.3712 137.204 17.5693 137.159 17.7698 137.16H142.35C142.551 137.158 142.75 137.202 142.932 137.289C143.114 137.376 143.274 137.503 143.4 137.66C143.524 137.818 143.611 138.001 143.656 138.196C143.701 138.391 143.702 138.594 143.66 138.79L134.2 180.18C134.124 180.469 133.954 180.724 133.717 180.905C133.479 181.086 133.188 181.183 132.89 181.18H56.3198L49.5198 210.93C49.4595 211.233 49.2958 211.505 49.0568 211.7C48.8178 211.895 48.5184 212.001 48.2098 212ZM28.2898 178.5H41.1698C41.4684 178.497 41.7594 178.594 41.9967 178.775C42.2341 178.956 42.4041 179.211 42.4798 179.5L48.2098 204.61L53.9998 179.54C54.0756 179.251 54.2456 178.996 54.4829 178.815C54.7202 178.634 55.0113 178.537 55.3098 178.54H131.88L140.73 139.82H19.4498L28.2898 178.5Z" fill="#FEFAE0"/>
</svg>
