<svg xmlns="http://www.w3.org/2000/svg" viewBox="0 0 715.58 213.22"><defs><style>.cls-1{fill:#dda15e;}.cls-2{fill:#fefae0;}</style></defs><g id="Layer_2" data-name="Layer 2"><g id="Layer_1-2" data-name="Layer 1"><path class="cls-1" d="M143.26,118.9H15.32v-.48H143.26a2.07,2.07,0,0,0,2-1.69l3-16.17a2.09,2.09,0,0,0-2-2.46H7.33a2.55,2.55,0,0,1-2.47-1.91A74.69,74.69,0,0,1,129.38,23.77a74.28,74.28,0,0,1,22.34,50.9,2.58,2.58,0,0,1-.72,1.86,2.55,2.55,0,0,1-1.84.77H41.4v-.47H149.16a2,2,0,0,0,1.49-.64,2,2,0,0,0,.59-1.5A74,74,0,0,0,25,24.5,73.56,73.56,0,0,0,2.86,77.19,74.32,74.32,0,0,0,5.32,96.07a2.07,2.07,0,0,0,2,1.55H146.27a2.57,2.57,0,0,1,2.51,3l-3,16.17A2.54,2.54,0,0,1,143.26,118.9Z"/><path class="cls-1" d="M143.26,120.13H14.1V117.2H143.26a.86.86,0,0,0,.84-.7l3-16.17a.84.84,0,0,0-.83-1H7.33a3.8,3.8,0,0,1-3.66-2.82A76,76,0,0,1,1.16,77.19a75.2,75.2,0,0,1,22.66-53.9A75.74,75.74,0,0,1,152.94,74.63a3.78,3.78,0,0,1-3.78,3.9h-109V75.6h109a.85.85,0,0,0,.62-.26.83.83,0,0,0,.23-.62A72.75,72.75,0,0,0,25.88,25.37,72.34,72.34,0,0,0,4.08,77.19,73.74,73.74,0,0,0,6.5,95.76a.86.86,0,0,0,.83.64H146.27a3.78,3.78,0,0,1,3.71,4.47L147,117A3.77,3.77,0,0,1,143.26,120.13Z"/><path class="cls-1" d="M143.26,120.06H15.32a1.16,1.16,0,0,1-1.16-1.16v-.48a1.15,1.15,0,0,1,1.16-1.15H143.26a.92.92,0,0,0,.9-.75l3-16.17a.92.92,0,0,0-.9-1.09H7.33a3.72,3.72,0,0,1-3.59-2.77,76.21,76.21,0,0,1-2.52-19.3A76.39,76.39,0,0,1,78,1.23a75.85,75.85,0,0,1,74.89,73.4,3.71,3.71,0,0,1-3.71,3.83H41.4a1.16,1.16,0,0,1-1.16-1.16v-.47a1.16,1.16,0,0,1,1.16-1.16H149.16a.92.92,0,0,0,.92-1A72.82,72.82,0,0,0,25.83,25.32,72.57,72.57,0,0,0,6.44,95.77a.93.93,0,0,0,.89.7H146.27a3.72,3.72,0,0,1,3.65,4.39l-3,16.17A3.72,3.72,0,0,1,143.26,120.06Z"/><path class="cls-1" d="M143.26,121.28H15.32a2.38,2.38,0,0,1-2.38-2.38v-.48A2.39,2.39,0,0,1,15.32,116H143l2.9-15.55H7.33A5,5,0,0,1,2.55,96.8,77.27,77.27,0,0,1,0,77.2,77.62,77.62,0,0,1,78,0,77.1,77.1,0,0,1,154.1,74.6a5,5,0,0,1-4.94,5.09H41.4A2.39,2.39,0,0,1,39,77.3v-.47a2.39,2.39,0,0,1,2.38-2.39H148.85A71.6,71.6,0,0,0,26.69,26.19,71.36,71.36,0,0,0,7.56,95.24H146.27a5,5,0,0,1,4.85,5.84l-3,16.17A4.92,4.92,0,0,1,143.26,121.28ZM15.39,118.83H143.26a2.48,2.48,0,0,0,2.44-2l3-16.17a2.49,2.49,0,0,0-2.44-2.94H7.33a2.16,2.16,0,0,1-2.08-1.6,74.47,74.47,0,0,1-2.46-18.9A74.82,74.82,0,0,1,78,2.8,74.08,74.08,0,0,1,151.3,74.68a2.1,2.1,0,0,1-.6,1.56,2.12,2.12,0,0,1-1.54.65H41.47v.35H149.16a2.49,2.49,0,0,0,2.49-2.57A74.39,74.39,0,0,0,24.73,24.2a74.16,74.16,0,0,0-19.81,72A2.5,2.5,0,0,0,7.33,98H146.27a2.13,2.13,0,0,1,2.1,2.53l-3,16.17a2.14,2.14,0,0,1-2.11,1.75H15.39Z"/><path class="cls-2" d="M48.21,212a1.33,1.33,0,0,1-1.31-1.09l-6.79-29.73H27.23a1.34,1.34,0,0,1-1.31-1l-9.45-41.39a1.33,1.33,0,0,1,1.3-1.63H142.35a1.33,1.33,0,0,1,1.05.5,1.36,1.36,0,0,1,.26,1.13l-9.46,41.39a1.34,1.34,0,0,1-1.31,1H56.32l-6.8,29.75A1.33,1.33,0,0,1,48.21,212ZM28.29,178.5H41.17a1.34,1.34,0,0,1,1.31,1l5.73,25.11L54,179.54a1.34,1.34,0,0,1,1.31-1h76.57l8.85-38.72H19.45Z"/><path class="cls-2" d="M48.21,213.22a2.57,2.57,0,0,1-2.52-2.09L39.13,182.4H27.23a2.56,2.56,0,0,1-2.5-2L15.27,139a2.58,2.58,0,0,1,2.5-3.14H142.35a2.57,2.57,0,0,1,2,1,2.52,2.52,0,0,1,.49,2.17l-9.46,41.39a2.55,2.55,0,0,1-2.5,2H57.3l-6.58,28.8A2.57,2.57,0,0,1,48.21,213.22ZM17.77,138.33a.14.14,0,0,0-.09,0,.13.13,0,0,0,0,.09l9.46,41.39a.12.12,0,0,0,.11.09H41.08l7,30.68c0,.18.21.14.23.05l7-30.73h77.54a.11.11,0,0,0,.11-.09l9.46-41.39a.1.1,0,0,0,0-.09.11.11,0,0,0-.09,0Zm30.44,71.82-6.93-30.34a.11.11,0,0,0-.11-.09H27.32l-9.41-41.16h124.3l-9.41,41.16H55.26a.11.11,0,0,0-.11.09ZM29.27,177.27h11.9a2.56,2.56,0,0,1,2.5,2l4.54,19.89,4.55-19.89a2.55,2.55,0,0,1,2.5-2h75.59L139.14,141H21Z"/><path class="cls-2" d="M203.07,111.7h5.34a1.28,1.28,0,0,1,1.29,1.16c.6,7.38,6.92,13.12,16.78,13.12,9,0,15.46-4.4,15.46-11.55,0-21.42-37.86-6.45-37.86-33.85,0-9.78,8.12-18.29,21.91-18.29,10,0,21.69,5.3,22.46,18.46a1.31,1.31,0,0,1-1.3,1.4h-5.53A1.3,1.3,0,0,1,240.33,81c-.5-7.12-5.62-11.43-14.44-11.43-9.68,0-13.89,5.38-13.89,11,0,18.69,38,5.68,38,33.37,0,10.76-8.8,19.37-23.77,19.37-13.1,0-23.65-8.25-24.42-20.22A1.3,1.3,0,0,1,203.07,111.7Z"/><path class="cls-1" d="M262.68,113.16V82.47a1.3,1.3,0,0,1,1.3-1.3h5.13a1.3,1.3,0,0,1,1.3,1.3v30.4c0,8.12,6,13.4,13.11,13.4,8,0,14.29-6.16,14.29-14.57V82.47a1.3,1.3,0,0,1,1.3-1.3h5.13a1.3,1.3,0,0,1,1.3,1.3v48.28a1.31,1.31,0,0,1-1.3,1.3h-5.13a1.3,1.3,0,0,1-1.3-1.3v-6.14h-.59c-2.15,4.6-7.63,8.71-15.56,8.71C269.82,133.32,262.68,124.41,262.68,113.16Z"/><path class="cls-1" d="M330.78,148.71a1.3,1.3,0,0,1,1.3-1.3h20.81c5.38,0,7.63-2.64,7.63-8.12V123.83h-.58c-1.67,3.13-6.75,9.49-17.42,9.49-14.38,0-24.26-11.06-24.26-26.81,0-15.56,10.37-26.61,24.85-26.61a19.7,19.7,0,0,1,17.12,9.29h.59V82.47a1.3,1.3,0,0,1,1.3-1.3H367a1.3,1.3,0,0,1,1.3,1.3v57.6c0,10.27-6.16,14.48-15.46,14.48H332.1a1.32,1.32,0,0,1-1.32-1.32Zm30-42.2c0-10.66-6.66-19.57-17.22-19.57-9.79,0-17.42,7.63-17.42,19.57,0,11.64,7.24,19.76,17.22,19.76C353,126.27,360.82,119,360.82,106.51Z"/><path class="cls-1" d="M393.5,148.71a1.3,1.3,0,0,1,1.3-1.3h20.81c5.38,0,7.63-2.64,7.63-8.12V123.83h-.59c-1.66,3.13-6.75,9.49-17.41,9.49-14.38,0-24.27-11.06-24.27-26.81C381,91,391.34,79.9,405.82,79.9A19.72,19.72,0,0,1,423,89.19h.58V82.47a1.3,1.3,0,0,1,1.3-1.3h4.84a1.3,1.3,0,0,1,1.3,1.3v57.6c0,10.27-6.16,14.48-15.46,14.48H395.28a1.78,1.78,0,0,1-1.78-1.78Zm30-42.2c0-10.66-6.65-19.57-17.22-19.57-9.78,0-17.41,7.63-17.41,19.57,0,11.64,7.24,19.76,17.22,19.76C415.71,126.27,423.53,119,423.53,106.51Z"/><path class="cls-1" d="M443.69,106.8c0-16.24,11.15-26.9,24.66-26.9,15.36,0,24.16,10.76,24.16,26v2.84h-40.9c.1,11.35,6.75,17.71,17.32,17.71,7.14,0,13.7-4.11,15.36-11.15l7.54,1.76c-2.84,9.49-11.26,16.24-23,16.24C453.38,133.32,443.69,122.46,443.69,106.8Zm40.9-4.3c-.49-10.57-7.83-15.66-16.24-15.66a16.38,16.38,0,0,0-16.54,15.66Z"/><path class="cls-1" d="M504.44,117.67l4.47-1.12a1.3,1.3,0,0,1,1.6,1c1.09,5.93,5.74,9,12.92,9,7.63,0,11.84-3.72,11.84-8.91,0-14.28-30.43-3.42-30.43-23.58,0-8.61,7.73-14.18,18.4-14.18,8.41,0,16.55,4.64,18.29,13.07a1.34,1.34,0,0,1-.92,1.54l-4.25,1.23a1.3,1.3,0,0,1-1.62-1c-1.23-5.15-5.86-8.23-12-8.23-6.36,0-10.47,3.13-10.47,7.53,0,12.92,30.52,2.16,30.52,23.19,0,9.59-7.92,16-19.76,16-10.92,0-17.92-5.69-19.56-14.11A1.3,1.3,0,0,1,504.44,117.67Z"/><path class="cls-1" d="M562.67,117.57V87.72h-8.29a1.3,1.3,0,0,1-1.3-1.3v-4a1.3,1.3,0,0,1,1.3-1.3h8.77V67.7a1.3,1.3,0,0,1,1.3-1.3h4.65a1.3,1.3,0,0,1,1.3,1.3V81.17h14.35a1.3,1.3,0,0,1,1.3,1.3v4a1.3,1.3,0,0,1-1.3,1.3H570.4v29.75c0,5.48,2.25,7.83,7.63,7.83h6a1.3,1.3,0,0,1,1.3,1.3v4.15a1.3,1.3,0,0,1-1.3,1.3h-5.94C568.83,132.05,562.67,127.84,562.67,117.57Z"/><path class="cls-1" d="M606.89,87.72H598.6a1.3,1.3,0,0,1-1.3-1.3v-4a1.3,1.3,0,0,1,1.3-1.3h14.72a1.3,1.3,0,0,1,1.3,1.3v48.28a1.3,1.3,0,0,1-1.3,1.3h-5.13a1.3,1.3,0,0,1-1.3-1.3ZM605.13,66.3A5.63,5.63,0,1,1,610.71,72,5.46,5.46,0,0,1,605.13,66.3Z"/><path class="cls-1" d="M637.71,87.72h-8.29a1.3,1.3,0,0,1-1.3-1.3v-4a1.3,1.3,0,0,1,1.3-1.3h8.29v-8c0-10.28,6.16-14.48,15.46-14.48h5.45a1.3,1.3,0,0,1,1.3,1.3v4.15a1.3,1.3,0,0,1-1.3,1.3h-5.55c-5.38,0-7.63,2.35-7.63,7.82v7.93H659a1.3,1.3,0,0,1,1.3,1.3v4a1.3,1.3,0,0,1-1.3,1.3H645.44v43a1.3,1.3,0,0,1-1.3,1.3H639a1.3,1.3,0,0,1-1.3-1.3Z"/><path class="cls-1" d="M670.58,148.8a1.31,1.31,0,0,1,1.3-1.3h4.38c4.69,0,6.94-1.95,8.51-6l3.62-9.49h-2L668.29,82.92a1.3,1.3,0,0,1,1.22-1.75h5.82a1.29,1.29,0,0,1,1.23.88l14.57,42.56h.59L707.16,82a1.29,1.29,0,0,1,1.22-.86h5.9a1.3,1.3,0,0,1,1.21,1.77l-24.07,62c-2.54,6.65-7.24,9.59-15.45,9.59h-4.09a1.3,1.3,0,0,1-1.3-1.3Z"/></g></g></svg>